<svg id="Слой_1" data-name="Слой 1" xmlns="http://www.w3.org/2000/svg" viewBox="0 0 392.38 309.29"><defs><style>.cls-1{fill:#ffd400;}.cls-2{fill:#fff;}</style></defs><circle class="cls-1" cx="116.73" cy="268.51" r="38.59"/><polygon class="cls-2" points="43.65 309 41.38 307.87 195.91 0 350.25 307.87 348 309 195.91 5.63 43.65 309"/><path class="cls-2" d="M350.37,309.29H41.23V.18H350.37ZM43.75,306.76H347.84V2.67H43.75Z" transform="translate(0.02)"/><path class="cls-2" d="M350.37,309.29H41.23V.18H350.37ZM43.75,306.76H347.84V2.67H43.75Z" transform="translate(0.02)"/><path class="cls-1" d="M195.89,308.43a153.62,153.62,0,1,1,60-12.11A153.64,153.64,0,0,1,195.89,308.43Zm0-305.76c-83.6,0-151.62,68-151.62,151.62s68,151.61,151.62,151.61,151.62-68,151.62-151.61S279.49,2.67,195.89,2.67Z" transform="translate(0.02)"/><polygon class="cls-2" points="43.77 4.04 43.77 2.67 347.87 2.67 347.87 4.04 350.39 4.04 350.39 0.15 41.26 0.15 41.26 4.04 43.77 4.04"/><polygon class="cls-2" points="347.87 304.68 347.87 306.76 43.77 306.76 43.77 304.68 41.26 304.68 41.26 309.29 350.39 309.29 350.39 304.68 347.87 304.68"/><path class="cls-2" d="M350.37,198.8H340.8V128.89H315.85v-8.63h60v8.63H350.37Z" transform="translate(0.02)"/><path class="cls-2" d="M213.43,300.18a28.54,28.54,0,0,0,7.8-1,18.51,18.51,0,0,0,5.68-2.77,16.34,16.34,0,0,0,4-4.29,20.56,20.56,0,0,0,2.48-5.56,22.5,22.5,0,0,0,.8-4.24,42.63,42.63,0,0,0,.24-4.52V230h9.39v47.6c0,1.8-.1,3.69-.29,5.65a37.63,37.63,0,0,1-.92,5.47,29.37,29.37,0,0,1-3.29,7.89,22.19,22.19,0,0,1-5.7,6.28,26.9,26.9,0,0,1-8.44,4.15,42.33,42.33,0,0,1-11.9,1.5,45.57,45.57,0,0,1-11.8-1.38,26.89,26.89,0,0,1-8.21-3.83,21.62,21.62,0,0,1-5.62-5.82,28.88,28.88,0,0,1-3.4-7.35A35.13,35.13,0,0,1,183,284a56.77,56.77,0,0,1-.37-6.39V230H192v47.83a39.67,39.67,0,0,0,.37,5.33,24.59,24.59,0,0,0,1.19,5,17.62,17.62,0,0,0,6.71,8.82C203.46,299.07,208.28,300.18,213.43,300.18Z" transform="translate(0.02)"/><path class="cls-2" d="M200.91,190.18h34.56v8.63H191.35V120.26h44.12v8.63H200.91v25.36h34.56v8.63H200.91Z" transform="translate(0.02)"/><path class="cls-2" d="M350.45,300.66h41.91v8.63h-43.3l-8.18-16.57v-62h51.48v8.63H350.45v25.36h41.61v8.62H350.45Z" transform="translate(0.02)"/><path class="cls-2" d="M9.57,264.62h32v-34h9.57v59.56l-9.57,19V273.24h-32v35.94H0V230.63H9.57Z" transform="translate(0.02)"/><polygon class="cls-2" points="296.95 198.81 296.95 190.18 291.06 190.18 295.3 198.81 296.95 198.81"/><polygon class="cls-2" points="296.95 128.9 296.95 120.27 255.13 120.27 262.49 134.61 262.49 128.9 296.95 128.9"/><polygon class="cls-2" points="296.7 162.88 296.7 154.25 272.46 154.25 276.69 162.88 296.7 162.88"/><path class="cls-2" d="M312.78,270.51a27.41,27.41,0,0,0-7.59-3.6c-2.84-.87-5.72-1.66-8.66-2.37-2.18-.53-4.28-1.09-6.29-1.7a22.34,22.34,0,0,1-5.3-2.32,10.87,10.87,0,0,1-3.64-3.59,10.27,10.27,0,0,1-1.36-5.52,14.17,14.17,0,0,1,1-5.46,10.64,10.64,0,0,1,3.11-4.19,14.74,14.74,0,0,1,5.27-2.66,26.53,26.53,0,0,1,7.47-.93,46.11,46.11,0,0,1,10.72,1.3,76.8,76.8,0,0,1,8,3.09l-5.13-10.17c-.8-.21-2-1.08-2.8-1.27A52.9,52.9,0,0,0,296.29,230a37.5,37.5,0,0,0-10,1.3,24.74,24.74,0,0,0-8.3,4,19.43,19.43,0,0,0-5.72,6.88,21.71,21.71,0,0,0-2.11,9.93,18.33,18.33,0,0,0,2,9.11,17.28,17.28,0,0,0,5.32,5.83,27.51,27.51,0,0,0,7.52,3.53c2.81.85,5.68,1.61,8.63,2.29,2.23.53,4.36,1.1,6.37,1.7a22.61,22.61,0,0,1,5.35,2.35,11.52,11.52,0,0,1,3.7,3.65,10.28,10.28,0,0,1,1.39,5.6,13.51,13.51,0,0,1-1.59,6.88,11.58,11.58,0,0,1-4.3,4.32,19.49,19.49,0,0,1-6.31,2.27,40.7,40.7,0,0,1-7.55.68,43.27,43.27,0,0,1-5.21-.34c-1.84-.23-3.67-.55-5.48-.94a48.31,48.31,0,0,1-5.27-1.44,35.75,35.75,0,0,1-4.58-1.87v8.49a19.33,19.33,0,0,0,3.57,1.59,44.67,44.67,0,0,0,5.06,1.41,55.52,55.52,0,0,0,5.88,1,50.07,50.07,0,0,0,6,.37,48.64,48.64,0,0,0,11.77-1.33,27.68,27.68,0,0,0,9.31-4.07,19.25,19.25,0,0,0,6.17-7A21.67,21.67,0,0,0,320.14,286a19.23,19.23,0,0,0-2.06-9.45A17.37,17.37,0,0,0,312.78,270.51Z" transform="translate(0.02)"/><path class="cls-2" d="M162.59,120.26l-19.25,66c-.7-1.72-18.19-40.36-18.19-40.36h-2.48l-3,5.92L102.3,186.33,78.8,120.22H69.23L96.4,198.63h2.26l19-37.7,2.19-4.4c1.35,3.48,18.5,42.23,18.5,42.23h9.7l24.13-78.5Z" transform="translate(0.02)"/><path class="cls-2" d="M9.73,141.71a10.36,10.36,0,0,0,1.36,5.52,10.87,10.87,0,0,0,3.64,3.59,22.34,22.34,0,0,0,5.3,2.32q3,.9,6.29,1.7c2.94.71,5.82,1.51,8.66,2.37a27.41,27.41,0,0,1,7.59,3.6,17.35,17.35,0,0,1,5.39,6A19.12,19.12,0,0,1,50,176.26a21.63,21.63,0,0,1-2.23,10.15,19.25,19.25,0,0,1-6.17,7,27.59,27.59,0,0,1-9.31,4.07,48.58,48.58,0,0,1-11.77,1.33,50.07,50.07,0,0,1-6-.37,55.7,55.7,0,0,1-5.89-1A44.67,44.67,0,0,1,3.59,196,20.3,20.3,0,0,1,0,194.45V186a34.49,34.49,0,0,0,4.59,1.87,47.53,47.53,0,0,0,5.26,1.44q2.72.6,5.49.94a43.1,43.1,0,0,0,5.2.34,40.73,40.73,0,0,0,7.56-.68,19.72,19.72,0,0,0,6.31-2.27,11.58,11.58,0,0,0,4.3-4.32,13.63,13.63,0,0,0,1.58-6.88,10.28,10.28,0,0,0-1.39-5.6,11.5,11.5,0,0,0-3.74-3.67,22.61,22.61,0,0,0-5.35-2.35q-3-.9-6.37-1.7c-2.94-.67-5.81-1.44-8.62-2.29a26.87,26.87,0,0,1-7.53-3.53A17.19,17.19,0,0,1,2,151.48a18.33,18.33,0,0,1-2-9.11,21.71,21.71,0,0,1,2.11-9.93,19.63,19.63,0,0,1,5.72-6.88,24.28,24.28,0,0,1,8.3-4,37.11,37.11,0,0,1,10-1.31,52.9,52.9,0,0,1,11.29,1.16,49.15,49.15,0,0,1,12,4.25l-1.67,7.89a76.82,76.82,0,0,0-10.39-3.79,46.11,46.11,0,0,0-10.72-1.3,26.9,26.9,0,0,0-7.47.93,14.46,14.46,0,0,0-5.26,2.66,10.67,10.67,0,0,0-3.12,4.19A14.09,14.09,0,0,0,9.73,141.71Z" transform="translate(0.02)"/></svg>