<svg xmlns="http://www.w3.org/2000/svg" viewBox="0 0 2011.81 1357.22"><defs><style>.cls-1{fill:#fff;}.cls-2{fill:#05303c;}</style></defs><g id="Слой_2" data-name="Слой 2"><g id="Слой_1-2" data-name="Слой 1"><rect class="cls-1" width="2011.81" height="1357.22"/><path class="cls-2" d="M248.91,0c-45.86,94.3-64.29,129.71-81.36,156.49-6.49,10.18-15.33,22.56-25.57,36.91-16.56,23.19-35.32,49.47-50.81,75.78-21.94,37.28-41.84,79.35-74.8,149.06L1.76,449.1c-.6,1.26-1.18,2.47-1.76,3.7v7.09c1.49-3.09,3-6.26,4.58-9.57Q12.29,434,19.19,419.45C52.11,349.82,72,307.79,93.87,270.63c15.42-26.2,34.14-52.43,50.66-75.57,10.26-14.38,19.13-26.79,25.66-37C187.41,131,206,95.36,252.31,0Z"/><path class="cls-2" d="M178.9,0c-8.71,12.25-26.1,33.8-56.81,61.23-18.64,16.65-31.85,27.39-42.46,36-14.3,11.62-23.75,19.3-35.46,32.35C31.74,141.7,13.22,151.54.8,157.33v3.27a213.3,213.3,0,0,0,32.1-18C29.42,146.75,26,150.89,22.62,155,14.81,164.41,7.27,173.52.8,180.21v4.28c7-6.84,15.23-16.78,24.25-27.69,6.92-8.38,14.08-17,21.43-25.23,11.57-12.91,21-20.54,35.15-32.08,10.64-8.65,23.88-19.41,42.57-36.11,32.28-28.83,50-51.27,58.41-63.38Z"/><path class="cls-2" d="M390.42,0c-2.14,3.63-4.25,7.13-6.34,10.59-8.65,14.32-16.81,27.85-26.15,48.66-22.23,49.57-37,81.46-55.22,106.3-6.19,8.46-15.64,19.72-26.58,32.77-22.3,26.58-52.84,63-82.44,107.07C167.43,344.5,122.58,397.08,79.2,447.92c-29.78,34.9-57.9,67.87-79.06,95.3L0,543.4v8.16c1.41-1.75,2.84-3.55,4.29-5.42C25.37,518.8,53.46,485.88,83.2,451,126.67,400.07,171.61,347.39,198,308c29.45-43.87,59.89-80.16,82.12-106.65,11.45-13.65,20.5-24.43,26.79-33C325.4,143.14,340.31,111,362.67,61.19c9.21-20.55,17.3-34,25.87-48.15,2.56-4.23,5.14-8.52,7.78-13Z"/><path class="cls-2" d="M2011.46,421.6c-4.41,3.85-71.51,62.46-90.28,86.45-3.64,4.66-6.85,9.24-10.24,14.09-13.7,19.55-29.22,41.72-78.27,71.21-55,33.08-135.39,97.23-160.16,124.6-8.9,9.84-21.29,27.53-35.63,48-25.93,37-58.19,83.09-87.65,108.3-46.36,39.69-98.7,97-121.76,133.28-18,28.37-16.18,36.36-14.55,43.41a18.31,18.31,0,0,1,.68,6c-.29,3.45-1.15,3.58-7.74,3.53a85.1,85.1,0,0,0-29.75,4.43c-28.1,9.16-99.62,82.06-102.65,85.16-4.85,4.61-120.11,114.2-141.8,142.79-15.8,20.82-36.72,50-47,64.39H1089c10.63-14.92,30.44-42.5,45.55-62.41,21.53-28.37,140.28-141.28,141.47-142.42.78-.8,74-75.43,101.25-84.31a81.93,81.93,0,0,1,28.58-4.26c6.23.06,10.73.09,11.3-6.62a21.1,21.1,0,0,0-.76-7c-1.4-6.12-3.15-13.73,14.13-40.94,22.9-36,75-93,121.1-132.52,29.78-25.49,62.18-71.76,88.22-108.93,14.28-20.39,26.61-38,35.37-47.68,24.61-27.2,104.58-91,159.36-123.95,49.69-29.88,65.44-52.36,79.33-72.19,3.37-4.81,6.55-9.36,10.14-13.95,16.76-21.43,74.62-72.62,87.44-83.88Z"/><path class="cls-2" d="M2011.46,752.71c-5.64,8.57-10.68,17.53-12.47,24.44-2.6,10-8.61,16.6-14.9,22.59,2.44-4.75,4.79-9.61,7.12-14.42,6.22-12.86,12.6-26,20.25-36.24V738.76c-2.44,1.82-4.84,3.55-7.24,5.2-3.54.36-10.81.13-24.91-3.38-12.78-3.18-16.13-6.29-20-9.89-3.61-3.36-7.71-7.16-19.91-11.1-21.35-6.89-33.18-26.79-35.32-30.68,3.88-7.29,36.67-36.15,58.41-54.32l.28-.24,6.86-14.11c3.36-6.91,16.31-23.26,31.3-42.19,3.43-4.33,7-8.8,10.53-13.34v-5.64c-4.53,5.79-9,11.48-13.35,16.94-15.74,19.87-28.17,35.57-31.69,42.81l-6.54,13.46c-7,5.83-56.3,47.31-59.43,56.15-.74,2.09-7.14,4-15.23,6.45-19.8,6-52.93,15.94-89.3,48.71-24.38,22-56.42,54.77-87.4,86.48-36.71,37.57-71.38,73-85.41,82.16-25.52,16.57-165.14,173-179.65,191.7a67.35,67.35,0,0,1-9.7,9.85c-2.37,1.73-6.74,5-12.22,9.15-9,6.11-19.06,13.32-26.28,18.11-6.12,4.07-12.69,9-15.29,10.67-8.17,5.16-23.4,10.61-32.8,13.34a34,34,0,0,1-3.47.69c-6,1-15.08,2.56-17.89,10.49-1.26,3.56-3.74,12.27.51,16.16,2.27,2.08,5.77,2.27,10.42.56,5.06-1.86,6.82-3.67,10-7s7.94-8.16,19.27-16.65c10.43-7.82,13.84-9.79,16.33-11.23,3.11-1.8,5-2.88,15.71-12,9.09-7.69,18.32-15,25.6-20.51,3.09-2.09,6.1-4.26,8.95-6.48,1.18-.93,2.32-1.85,3.4-2.77a106.94,106.94,0,0,0,10.17-10.29c30.72-20.87,56-39.27,189.32-144a19.18,19.18,0,0,1,3.94-2.37c10.67-4.77,59-26.56,77.55-39.09,13.79-9.34,32.51-19,43.47-24.43-1,1.34-1.91,2.69-2.87,4.06a164.41,164.41,0,0,1-15.52,19.59c-8.82,9.5-17.42,17.89-27.39,27.61-22.8,22.23-51.18,49.9-99.09,107.84-69.75,84.36-109.5,112.17-151.58,141.62-11,7.7-22.41,15.67-34.39,24.73-41.24,31.16-112.31,100.17-148.08,135.57h8.2c36.74-36.26,104-101.3,143.54-131.16,11.9-9,23.25-16.93,34.22-24.6,42.41-29.68,82.48-57.71,152.72-142.67,47.72-57.7,76-85.26,98.67-107.39,10-9.78,18.68-18.22,27.59-27.82a170.73,170.73,0,0,0,16-20.19c11.52-16.44,19.84-28.32,95.35-71.65,45.07-25.86,75.06-41.55,97-53,20-10.49,34-17.79,47.45-26.56-6,9.37-11.26,20.18-16.39,30.78-7.78,16.09-15.83,32.73-26.18,43-25,24.8-62.76,62.28-167.4,140.89-105,78.88-126.61,99.75-173.43,154.74-19,22.26-32.16,39.25-43.8,54.23-17.56,22.6-32.72,42.11-61,71.34-33.48,34.57-61.2,79.43-78.14,110h8.53c19.73-33.5,49.68-81.18,73.94-106.23,28.53-29.45,43.78-49.08,61.44-71.8,11.61-14.94,24.77-31.87,43.64-54,46.49-54.6,68-75.34,172.5-153.86,105-78.86,142.89-116.51,168-141.42,5.55-5.51,10.39-12.56,14.85-20.31,1.57-1.58,3.26-3.16,5-4.78C1991,798,1999.2,790.4,2002.43,778c1.36-5.26,4.85-11.94,9-18.71Zm-69.08,26.11c-21,11-48.64,25.75-87.58,48.09-61.13,35.08-79,50-89.78,63.28-8.33,4-32.94,16.07-50.08,27.69-20.16,13.65-76.14,38.09-78.77,39.58-8.74,5-153.75,122.38-182.24,139.11,19.2-22.84,149.43-167.43,171.17-181.55,14.36-9.32,49.16-44.94,86-82.65,30.94-31.67,62.94-64.42,87.24-86.32,35.78-32.24,68.43-42.07,87.94-47.95,7.71-2.32,12.86-3.88,15.56-6,3.78,6.44,15.72,24,36.42,30.72,11.44,3.69,15.06,7.06,18.57,10.32,3.84,3.57,7.5,7,19.49,10.2C1969.22,756.15,1951.19,771.68,1942.38,778.82Zm13.76-7.2c8.84-8,18.85-18.28,23.68-27.43a108.75,108.75,0,0,0,19.29,3.2C1986.75,755.48,1973.9,762.32,1956.14,771.62Z"/><path class="cls-2" d="M2011.46,1120.56v-3.91c-12.73,7.06-28.28,16.46-48,30a705.23,705.23,0,0,0-63.4,48.33c-13.24,11.13-24.67,20.75-44.46,33.59-6,3.89-11.38,7.42-16.36,10.69-29.55,19.36-44.39,29.08-81.35,45.49-32.11,14.26-64.1,35-78.42,44.74,16.12-23.69,31.44-47.11,31.69-47.48l.1-.19c.16-.33,15.77-32.47,34-46.17l-.5-.61c3.62-2.77,9.55-7.18,16.7-12.48,27.86-20.68,79.72-59.18,104.76-82.69,16-15,31.32-22.18,49-30.45,18.57-8.67,39.62-18.5,67.76-39.59,7.73-5.8,17.42-12.44,28.45-19.65v-6.81c-12.52,8.12-23.49,15.58-32.1,22-27.64,20.73-48.39,30.41-66.71,39s-33.86,15.81-50.57,31.5c-1.35,1.27-2.8,2.59-4.31,4,8.29-14.49,23.22-39.43,37-56.31,9.74-12,20.18-26,31.23-40.89,12.44-16.73,26.53-35.69,42.39-55.4,7-8.65,15.39-18.79,25.16-30.52q8.25-9.91,18-21.62v-5.45q-11.26,13.65-20.72,25c-9.78,11.74-18.23,21.89-25.2,30.56-15.9,19.77-30,38.76-42.46,55.51-11,14.84-21.45,28.86-31.14,40.76-17.28,21.23-36.37,55-42.09,65.33-27,23.07-68.24,53.72-92,71.36-9.29,6.9-16,11.88-19.09,14.33-5,4-12.15,5.63-22,7.85-12.4,2.82-29.39,6.67-50.59,18-46.91,25-140.46,75.1-183.47,99h11.77c45.88-25.27,130.66-70.67,174.58-94.07,20.48-10.91,36.33-14.5,49.07-17.39a120.2,120.2,0,0,0,15.66-4.24c-14.15,15.29-24.76,36.82-25.71,38.78-1.56,2.39-32.4,49.47-52.17,76.92h4.28c4.3-6,9-12.8,13.85-19.81,3.33-2.38,44.26-31.36,85.34-49.61,37.22-16.53,52.14-26.3,81.85-45.77,5-3.26,10.37-6.79,16.35-10.67,20-13,31.48-22.65,44.81-33.86a706.36,706.36,0,0,1,63.12-48.12C1984.21,1136.56,1999.15,1127.47,2011.46,1120.56Z"/><path class="cls-2" d="M2011.46,1183.18c-27.82,39.51-62.55,93.79-68.86,113.93-3.83,12.25-18.71,37.09-33.49,60.11h4.19c14.49-22.65,28.83-46.79,32.7-59.14,5.75-18.38,37.74-69.29,65.46-109Z"/><path class="cls-2" d="M164.71,471.09l-4.22,1.25c0,4.06,34.73-100.86,51.9-135,8.19-16.32,21.33-35.4,35.24-55.6,15.47-22.47,31.46-45.69,41.47-66.46a652.63,652.63,0,0,0,30.82-75.86l3,.86a654.28,654.28,0,0,1-31,76.24c-10.11,21-26.17,44.29-41.69,66.84-13.86,20.12-26.94,39.13-35,55.26C198.11,372.58,165,470.1,164.71,471.09Z"/><path class="cls-2" d="M642.9,0C622,17.49,598.69,42.47,571.35,85.2,521.75,162.7,425.24,276.05,384,311.05c-14.73,12.48-41.51,30.07-72.53,50.43C255,398.57,184.69,444.72,146.19,486.85,103.93,533.11,48.35,583.63,0,620.84v4.39c49.05-37.51,105.87-89,148.89-136.13,38.2-41.81,108.27-87.83,164.58-124.8,31.11-20.43,58-38.08,72.87-50.7C427.8,278.46,524.66,164.71,574.4,87c28.47-44.47,52.54-69.55,74-87Z"/></g></g></svg>